<svg width="800" height="889" viewBox="0 0 800 889" fill="none" xmlns="http://www.w3.org/2000/svg">
<path fill-rule="evenodd" clip-rule="evenodd" d="M300.518 16.4858C230.518 31.057 93.3793 82 39.5183 171.912C3.80684 231.526 -26.8722 307.659 37.3923 349.148C37.9465 349.506 37.61 350.42 36.9674 350.27V350.27C36.6993 350.208 36.435 350.344 36.3205 350.594C29.7694 364.909 27.3446 381.532 33.3716 396.911C38.5377 410.093 46.0281 422.815 47.0925 436.933L68.1563 716.313C69.967 740.329 82.501 762.252 102.279 775.995L183.109 832.162C199.158 843.314 218.734 848.206 238.142 845.913L596.605 803.58C616.488 801.232 634.767 791.514 647.834 776.345L708.13 706.352C720.638 691.832 727.518 673.304 727.518 654.139V270.609C727.518 270.558 727.471 270.519 727.421 270.53V270.53C727.354 270.543 727.302 270.471 727.334 270.41C736.506 253.196 735.116 237.022 726.832 222.269C721.545 212.853 720.254 201.292 724.996 191.589C752.572 135.168 734.136 80.9106 693.518 53.3995C639.018 16.4859 526.518 -23.1477 300.518 16.4858Z" fill="#01636C"/>
<path d="M127.557 771.779L103.913 448.938C103.035 436.949 111.162 426.16 122.927 423.695L755.958 291.06C770.869 287.936 784.879 299.315 784.879 314.55V701.783C784.879 707.414 782.899 712.866 779.285 717.185L690.969 822.723C687.057 827.398 681.511 830.409 675.46 831.145L274.646 879.873C268.686 880.598 262.67 879.062 257.787 875.569L137.53 789.546C131.732 785.399 128.078 778.888 127.557 771.779Z" fill="#F34A49" stroke="#01636C" stroke-width="16"/>
<rect x="248.163" y="457.633" width="16" height="424" transform="rotate(-2.76463 248.163 457.633)" fill="#01636C"/>
<rect x="602.379" y="336.106" width="16" height="494.401" transform="rotate(-0.380165 602.379 336.106)" fill="#01636C"/>
<path d="M445.978 436.5C98.7785 519.3 63.3118 426.333 88.9785 369.5C157.479 386 332.379 409.1 483.979 369.5C635.578 329.9 730.145 250 762.979 217C819.479 272 793.178 353.7 445.978 436.5Z" fill="#FEF9EF" stroke="#01636C" stroke-width="16"/>
<mask id="mask0" mask-type="alpha" maskUnits="userSpaceOnUse" x="89" y="217" width="705" height="253">
<path d="M451.023 429.218C364.543 449.842 297.767 459.447 246.698 461.461C195.546 463.477 160.637 457.854 137.574 448.454C114.701 439.131 103.842 426.287 99.5963 413.558C95.9326 402.572 96.8412 390.614 100.754 379.346C174.123 395.833 344.305 416.555 492.901 377.74C638.109 339.81 731.69 265.313 769.695 228.885C779.591 240.103 784.97 251.671 785.009 263.382C785.053 276.932 777.944 292.866 757.491 310.811C716.199 347.039 624.589 387.826 451.023 429.218Z" fill="#FEF9EF" stroke="#01636C" stroke-width="16"/>
</mask>
<g mask="url(#mask0)">
<rect x="-15.6206" y="105.918" width="73" height="523.001" transform="rotate(-39.4185 -15.6206 105.918)" fill="#009FB7" fill-opacity="0.82"/>
<rect x="107.379" y="33.9186" width="73" height="588.546" transform="rotate(-39.4185 107.379 33.9186)" fill="#009FB7" fill-opacity="0.77"/>
<rect x="268.379" y="-33.6464" width="73" height="614.092" transform="rotate(-39.4185 268.379 -33.6464)" fill="#009FB7" fill-opacity="0.79"/>
<rect x="407.379" y="-67.0812" width="73" height="553.347" transform="rotate(-39.4185 407.379 -67.0812)" fill="#009FB7" fill-opacity="0.91"/>
<rect x="556.38" y="-111.081" width="73" height="435" transform="rotate(-39.4185 556.38 -111.081)" fill="#009FB7" fill-opacity="0.86"/>
<rect x="286.225" y="-124.435" width="73" height="435" transform="rotate(48.5098 286.225 -124.435)" fill="#009FB7" fill-opacity="0.82"/>
<rect x="575.439" y="-68" width="73" height="735.659" transform="rotate(48.5098 575.439 -68)" fill="#009FB7" fill-opacity="0.88"/>
<rect x="806.25" y="-76" width="73" height="895.606" transform="rotate(48.5098 806.25 -76)" fill="#009FB7" fill-opacity="0.79"/>
<rect x="778.792" y="154.926" width="45.8698" height="775.32" transform="rotate(51.5752 778.792 154.926)" fill="#009FB7" fill-opacity="0.93"/>
</g>
<path d="M444.978 437.5C97.7785 520.3 62.3118 427.333 87.9785 370.5C156.479 387 331.379 410.1 482.979 370.5C634.578 330.9 729.145 251 761.979 218C818.479 273 792.178 354.7 444.978 437.5Z" stroke="#01636C" stroke-width="16"/>
<path d="M92.6334 195.536C154.633 97.0362 283.633 50.5362 353.633 35.5362C579.633 -5.26377 694.353 32.5363 746.633 73.5362C833.379 141.565 818.233 328.736 446.633 389.536C-17.8666 465.536 25.6192 302.003 92.6334 195.536Z" fill="#FEF9EF" stroke="#01636C" stroke-width="16"/>
<mask id="mask1" mask-type="alpha" maskUnits="userSpaceOnUse" x="54" y="18" width="740" height="392">
<path d="M102.404 199.798C132.4 152.142 178.852 116.722 226.877 91.2938C274.801 65.9183 323.77 50.7714 358.183 43.3858C583.057 2.81124 695.003 40.8601 744.697 79.8313C784.875 111.341 801.937 170.6 764.733 230.001C727.149 290.008 633.266 351.385 448.342 381.641C332.55 400.587 248.963 404.504 189.77 398.302C130.416 392.083 96.822 375.827 79.3557 355.715C62.1679 335.925 59.247 310.782 65.1762 283.129C71.1321 255.352 85.8515 226.095 102.404 199.798Z" fill="#FEF9EF" stroke="#01636C" stroke-width="16"/>
</mask>
<g mask="url(#mask1)">
<rect x="19.3794" y="161.918" width="73" height="435" transform="rotate(-39.4185 19.3794 161.918)" fill="#009FB7" fill-opacity="0.82"/>
<rect x="142.379" y="89.9186" width="73" height="490.733" transform="rotate(-39.4185 142.379 89.9186)" fill="#009FB7" fill-opacity="0.77"/>
<rect x="263.379" y="9.91882" width="73" height="487.904" transform="rotate(-39.4185 263.379 9.91882)" fill="#009FB7" fill-opacity="0.79"/>
<rect x="442.379" y="-11.0812" width="73" height="435" transform="rotate(-39.4185 442.379 -11.0812)" fill="#009FB7" fill-opacity="0.91"/>
<rect x="591.38" y="-55.0811" width="73" height="435" transform="rotate(-39.4185 591.38 -55.0811)" fill="#009FB7" fill-opacity="0.86"/>
<rect x="321.225" y="-68.4347" width="73" height="435" transform="rotate(48.5098 321.225 -68.4347)" fill="#009FB7" fill-opacity="0.82"/>
<rect x="591.132" y="-114.542" width="73" height="735.659" transform="rotate(48.5098 591.132 -114.542)" fill="#009FB7" fill-opacity="0.88"/>
<rect x="778.029" y="-77.4291" width="73" height="895.606" transform="rotate(48.5098 778.029 -77.4291)" fill="#009FB7" fill-opacity="0.79"/>
<rect x="874.739" y="28.0032" width="73" height="958.821" transform="rotate(48.5098 874.739 28.0032)" fill="#009FB7" fill-opacity="0.93"/>
</g>
<path d="M93.6333 195.971C155.633 97.4709 284.633 50.9709 354.633 35.9709C580.633 -4.82908 695.353 32.971 747.633 73.9709C834.379 142 819.233 329.171 447.633 389.971C-16.8667 465.971 26.6191 302.437 93.6333 195.971Z" stroke="#01636C" stroke-width="16"/>
<path d="M189.379 737V568L637.879 537V722.5L189.379 737Z" fill="#FED766" stroke="#01636C" stroke-width="16"/>
<path d="M622.379 547V527C622.379 524.791 624.17 523 626.379 523H647.379C649.588 523 651.379 524.791 651.379 527V547C651.379 549.209 649.588 551 647.379 551H626.379C624.17 551 622.379 549.209 622.379 547Z" fill="#FEF9EF" stroke="#01636C" stroke-width="8"/>
<path d="M174.379 745V725C174.379 722.791 176.17 721 178.379 721H199.379C201.588 721 203.379 722.791 203.379 725V745C203.379 747.209 201.588 749 199.379 749H178.379C176.17 749 174.379 747.209 174.379 745Z" fill="#FEF9EF" stroke="#01636C" stroke-width="8"/>
<path d="M175.379 580V557C175.379 554.791 177.17 553 179.379 553H198.379C200.588 553 202.379 554.791 202.379 557V580C202.379 582.209 200.588 584 198.379 584H179.379C177.17 584 175.379 582.209 175.379 580Z" fill="#FEF9EF" stroke="#01636C" stroke-width="8"/>
<path d="M622.379 731V710C622.379 707.791 624.17 706 626.379 706H646.379C648.588 706 650.379 707.791 650.379 710V731C650.379 733.209 648.588 735 646.379 735H626.379C624.17 735 622.379 733.209 622.379 731Z" fill="#FEF9EF" stroke="#01636C" stroke-width="8"/>
<path d="M654.043 760.071L657.605 756.857L662.85 762.555C664.038 763.846 666.076 763.846 667.265 762.555L673.173 756.135C674.296 754.916 674.216 753.017 672.996 751.895L667.741 747.064L671.464 742.085L669.863 740.887L671.464 742.085C672.553 740.63 672.107 738.548 670.518 737.666L639.794 720.608C637.331 719.241 634.511 721.715 635.548 724.335L649.244 758.948C650.014 760.894 652.49 761.474 654.043 760.071ZM656.934 756.128L656.935 756.129L656.934 756.128Z" fill="#01636C" stroke="#FEF9EF" stroke-width="4"/>
</svg>
